# This file uses centimeters as units for non-parametric coordinates.

v 0.951057 -1.000000 -0.309017
v 0.809018 -1.000000 -0.587786
v 0.587786 -1.000000 -0.809017
v 0.309017 -1.000000 -0.951057
v 0.000000 -1.000000 -1.000000
v -0.309017 -1.000000 -0.951057
v -0.587785 -1.000000 -0.809017
v -0.809017 -1.000000 -0.587785
v -0.951057 -1.000000 -0.309017
v -1.000000 -1.000000 0.000000
v -0.951057 -1.000000 0.309017
v -0.809017 -1.000000 0.587785
v -0.587785 -1.000000 0.809017
v -0.309017 -1.000000 0.951057
v -0.000000 -1.000000 1.000000
v 0.309017 -1.000000 0.951057
v 0.587785 -1.000000 0.809017
v 0.809017 -1.000000 0.587785
v 0.951057 -1.000000 0.309017
v 1.000000 -1.000000 0.000000
v 0.000000 1.000000 0.000000
vt 1.100032 0.000000
vt 1.000032 0.000000
vt 0.900032 0.000000
vt 0.800032 0.000000
vt 0.700032 0.000000
vt 0.600032 0.000000
vt 0.500032 0.000000
vt 0.400032 0.000000
vt 0.300032 0.000000
vt 0.200032 0.000000
vt 0.100032 0.000000
vt 0.000032 0.000000
vt -0.099968 0.000000
vt -0.199968 0.000000
vt 1.400032 0.000000
vt 1.300032 0.000000
vt 1.200032 0.000000
vt 0.687199 1.000000
vt -0.299968 0.000000
vt -0.399968 0.000000
vt 1.500032 0.000000
vt 1.600032 0.000000
vt 1.700032 0.000000
vn 0.000000 -1.000000 -0.000000
vn 0.000000 -1.000000 -0.000000
vn 0.000000 -1.000000 -0.000000
vn 0.000000 -1.000000 -0.000000
vn 0.000000 -1.000000 -0.000000
vn 0.000000 -1.000000 -0.000000
vn 0.000000 -1.000000 -0.000000
vn 0.000000 -1.000000 -0.000000
vn 0.000000 -1.000000 -0.000000
vn 0.000000 -1.000000 -0.000000
vn 0.000000 -1.000000 -0.000000
vn 0.000000 -1.000000 -0.000000
vn 0.000000 -1.000000 -0.000000
vn 0.000000 -1.000000 -0.000000
vn 0.000000 -1.000000 -0.000000
vn 0.000000 -1.000000 -0.000000
vn 0.000000 -1.000000 -0.000000
vn 0.000000 -1.000000 -0.000000
vn 0.000000 -1.000000 -0.000000
vn 0.000000 -1.000000 -0.000000
vn 0.850651 0.447214 -0.276392
vn 0.723607 0.447214 -0.525731
vn 0.000000 1.000000 -0.000005
vn 0.525731 0.447214 -0.723607
vn 0.276393 0.447214 -0.850651
vn -0.000000 0.447214 -0.894427
vn -0.276393 0.447214 -0.850651
vn -0.525731 0.447214 -0.723607
vn -0.723607 0.447214 -0.525731
vn -0.850651 0.447214 -0.276393
vn -0.894427 0.447214 0.000000
vn -0.850651 0.447214 0.276393
vn -0.723607 0.447214 0.525731
vn -0.525731 0.447214 0.723607
vn -0.276393 0.447214 0.850651
vn 0.000000 0.447214 0.894427
vn 0.276393 0.447214 0.850651
vn 0.525731 0.447214 0.723607
vn 0.723607 0.447214 0.525731
vn 0.850651 0.447214 0.276393
vn 0.894427 0.447214 0.000001
f 1/1/1 20/2/2 19/3/3 18/4/4 17/5/5 16/6/6 15/7/7 14/8/8 13/9/9 12/10/10 11/11/11 10/12/12 9/13/13 8/14/14 7/19/15 6/20/16 5/21/17 4/15/18 3/16/19 2/17/20
f 1/1/21 2/17/22 21/18/23
f 2/17/22 3/16/24 21/18/23
f 3/16/24 4/15/25 21/18/23
f 4/15/25 5/21/26 21/18/23
f 5/21/26 6/22/27 21/18/23
f 6/22/27 7/23/28 21/18/23
f 7/19/28 8/14/29 21/18/23
f 8/14/29 9/13/30 21/18/23
f 9/13/30 10/12/31 21/18/23
f 10/12/31 11/11/32 21/18/23
f 11/11/32 12/10/33 21/18/23
f 12/10/33 13/9/34 21/18/23
f 13/9/34 14/8/35 21/18/23
f 14/8/35 15/7/36 21/18/23
f 15/7/36 16/6/37 21/18/23
f 16/6/37 17/5/38 21/18/23
f 17/5/38 18/4/39 21/18/23
f 18/4/39 19/3/40 21/18/23
f 19/3/40 20/2/41 21/18/23
f 20/2/41 1/1/21 21/18/23
