# This file uses centimeters as units for non-parametric coordinates.

v -17.996042 0.006583 -17.996046
v -17.996046 0.006583 17.996042
v 17.996044 0.006583 17.996044
v 17.996044 0.006583 -17.996044
v 0.000000 5.785452 0.000000
vt 0.743391 0.743391
vt 0.256609 0.743391
vt 0.743391 0.256609
vt 0.256609 0.256609
vt 0.000977 0.500001
vt 0.499999 0.000977
vt 0.999023 0.499999
vt 0.500001 0.999023
vn 0.000000 -1.000000 0.000000
vn 0.000000 -1.000000 0.000000
vn 0.000000 -1.000000 0.000000
vn 0.000000 -1.000000 0.000000
vn 0.000000 -1.000000 0.000000
vn 0.000000 -1.000000 0.000000
vn -0.305742 0.952114 -0.000000
vn -0.305742 0.952114 -0.000000
vn -0.305742 0.952115 -0.000000
vn 0.000000 0.952115 0.305742
vn 0.000000 0.952115 0.305742
vn 0.000000 0.952114 0.305742
vn 0.305742 0.952115 0.000000
vn 0.305742 0.952115 0.000000
vn 0.305742 0.952115 0.000000
vn 0.000000 0.952115 -0.305742
vn 0.000000 0.952115 -0.305742
vn 0.000000 0.952115 -0.305742
f 1/1/1 4/2/2 2/3/3
f 2/3/4 4/2/5 3/4/6
f 1/1/7 2/3/8 5/7/9
f 2/3/10 3/4/11 5/6/12
f 3/4/13 4/2/14 5/5/15
f 4/2/16 1/1/17 5/8/18
