# This file uses centimeters as units for non-parametric coordinates.

v 0.809017 4.157633 -0.021569
v 0.309017 4.520905 -0.021569
v -0.309017 4.520905 -0.021569
v -0.809017 4.157633 -0.021569
v -1.000000 3.569848 -0.021569
v -0.809017 2.982062 -0.021569
v -0.309017 2.618791 -0.021569
v 0.309017 2.618791 -0.021569
v 0.809017 2.982063 -0.021569
v 1.000000 3.569848 -0.021569
v 0.809017 4.157633 0.267509
v 0.309017 4.520905 0.267509
v -0.309017 4.520905 0.267509
v -0.809017 4.157633 0.267509
v -1.000000 3.569848 0.267509
v -0.809017 2.982062 0.267509
v -0.309017 2.618791 0.267509
v 0.309017 2.618791 0.267509
v 0.809017 2.982063 0.267509
v 1.000000 3.569848 0.267509
v 0.000000 3.569848 -0.021569
v 0.000000 2.892564 -0.027974
v 0.521675 3.414240 -0.027974
v -0.521675 3.414240 -0.027974
v 0.000000 3.935915 -0.027974
v -0.521675 3.414240 -0.447658
v 0.000000 3.935915 -0.447658
v 0.000000 2.892564 -0.447658
v 0.521675 3.414240 -0.447658
v -0.521675 2.687786 -0.993798
v 0.000000 3.209462 -0.993798
v 0.521675 2.687786 -0.993798
v 0.000000 2.166111 -0.993798
v -0.195671 3.916448 -2.222800
v 0.000000 4.265708 -2.222800
v 0.195671 3.916448 -2.222800
v 0.000000 3.567188 -2.222800
v 0.340202 2.839571 -2.860026
v 0.129945 2.839571 -3.012786
v -0.129946 2.839571 -3.012786
v -0.340202 2.839571 -2.860026
v -0.420513 2.839571 -2.612855
v -0.340202 2.839571 -2.365684
v -0.129946 2.839571 -2.212924
v 0.129946 2.839571 -2.212924
v 0.340202 2.839571 -2.365684
v 0.420513 2.839571 -2.612855
v 0.468157 4.425932 -2.952991
v 0.178820 4.425932 -3.163207
v -0.178820 4.425932 -3.163207
v -0.468158 4.425932 -2.952991
v -0.578674 4.425932 -2.612855
v -0.468157 4.425932 -2.272718
v -0.178820 4.425932 -2.062503
v 0.178820 4.425932 -2.062503
v 0.468157 4.425932 -2.272718
v 0.578674 4.425932 -2.612855
v 0.000000 4.425932 -2.612855
v 0.246552 4.415257 -2.869861
v 0.000000 4.415257 -2.971986
v -0.246552 4.415257 -2.869861
v -0.348678 4.415257 -2.623308
v -0.246552 4.415257 -2.376756
v 0.000000 4.415257 -2.274631
v 0.246552 4.415257 -2.376756
v 0.348678 4.415257 -2.623308
v 0.246552 5.112612 -2.869861
v 0.000000 5.112612 -2.971986
v -0.246552 5.112612 -2.869861
v -0.348678 5.112612 -2.623308
v -0.246552 5.112612 -2.376756
v 0.000000 5.112612 -2.274631
v 0.246552 5.112612 -2.376756
v 0.348678 5.112612 -2.623308
v 0.000000 5.112612 -2.623308
vt 0.164870 0.968664
vt 0.106092 0.987763
vt 0.106092 0.887763
vt 0.201197 0.918664
vt 0.201197 0.856861
vt 0.164870 0.806861
vt 0.106091 0.787763
vt 0.047313 0.806861
vt 0.010986 0.856861
vt 0.010986 0.918664
vt 0.047313 0.968664
vt 0.620337 0.738741
vt 0.696682 0.767654
vt 0.620335 0.767649
vt 0.009560 0.738752
vt 0.009557 0.767660
vt 0.085907 0.738757
vt 0.085905 0.767665
vt 0.162253 0.738759
vt 0.162253 0.767667
vt 0.238599 0.738757
vt 0.238601 0.767665
vt 0.314946 0.738752
vt 0.314949 0.767660
vt 0.391293 0.738746
vt 0.391296 0.767654
vt 0.467641 0.738741
vt 0.467643 0.767649
vt 0.543989 0.738739
vt 0.543989 0.767647
vt 0.696685 0.738746
vt 0.773032 0.738752
vt 0.773029 0.767660
vt 0.008245 0.715016
vt 0.008245 0.673048
vt 0.221657 0.673043
vt 0.221668 0.715011
vt 0.861918 0.715016
vt 0.648494 0.715011
vt 0.648505 0.673043
vt 0.861917 0.673048
vt 0.435081 0.673037
vt 0.435081 0.715006
vt 0.016618 0.634236
vt 0.021175 0.582175
vt 0.240031 0.610682
vt 0.240007 0.558621
vt 0.901151 0.634236
vt 0.682273 0.657787
vt 0.682297 0.605725
vt 0.905708 0.582175
vt 0.458885 0.582171
vt 0.463441 0.634233
vt 0.037114 0.518866
vt 0.012686 0.452100
vt 0.260211 0.533036
vt 0.260142 0.461587
vt 0.867725 0.518866
vt 0.675472 0.504693
vt 0.675517 0.442611
vt 0.843297 0.452100
vt 0.507690 0.452099
vt 0.483234 0.518863
vt 0.321836 0.781274
vt 0.383461 0.801297
vt 0.321836 0.886118
vt 0.421548 0.853719
vt 0.421549 0.918517
vt 0.383462 0.970939
vt 0.321836 0.990962
vt 0.260210 0.970939
vt 0.222123 0.918517
vt 0.222123 0.853719
vt 0.260210 0.801297
vt 0.541209 0.786914
vt 0.611536 0.816045
vt 0.541209 0.886372
vt 0.640667 0.886372
vt 0.611536 0.956699
vt 0.541209 0.985830
vt 0.470882 0.956699
vt 0.441751 0.886372
vt 0.470882 0.816045
vt 0.011692 0.261968
vt 0.011692 0.415962
vt 0.605350 0.415962
vt 0.096501 0.261968
vt 0.096501 0.415962
vt 0.181309 0.261968
vt 0.181309 0.415962
vt 0.266117 0.261968
vt 0.266117 0.415962
vt 0.350925 0.261968
vt 0.350925 0.415962
vt 0.435734 0.261968
vt 0.435734 0.415962
vt 0.520542 0.261968
vt 0.520542 0.415962
vt 0.605350 0.261968
vt 0.690158 0.261968
vt 0.690158 0.415962
vt 0.780156 0.036367
vt 0.876066 0.195003
vt 0.780156 0.195003
vt 0.012871 0.036367
vt 0.012871 0.195003
vt 0.108781 0.036367
vt 0.108781 0.195003
vt 0.204692 0.036367
vt 0.204692 0.195003
vt 0.300603 0.036367
vt 0.300602 0.195003
vt 0.396513 0.036367
vt 0.396513 0.195003
vt 0.492424 0.036367
vt 0.492424 0.195003
vt 0.588334 0.036367
vt 0.588334 0.195003
vt 0.684245 0.036367
vt 0.684245 0.195003
vt 0.876066 0.036367
vt 0.971977 0.036367
vt 0.971977 0.195003
vn 0.587785 0.809017 0.000000
vn 0.587785 0.809017 0.000000
vn 0.587785 0.809017 0.000000
vn 0.587785 0.809017 0.000000
vn 0.000000 1.000000 0.000000
vn 0.000000 1.000000 0.000000
vn 0.000000 1.000000 0.000000
vn 0.000000 1.000000 0.000000
vn -0.587786 0.809017 0.000000
vn -0.587786 0.809017 0.000000
vn -0.587786 0.809017 0.000000
vn -0.587786 0.809017 0.000000
vn -0.951056 0.309017 0.000000
vn -0.951057 0.309017 0.000000
vn -0.951057 0.309017 0.000000
vn -0.951056 0.309017 0.000000
vn -0.951057 -0.309017 0.000000
vn -0.951057 -0.309017 0.000000
vn -0.951057 -0.309017 0.000000
vn -0.951057 -0.309017 0.000000
vn -0.587785 -0.809017 0.000000
vn -0.587785 -0.809017 0.000000
vn -0.587785 -0.809017 0.000000
vn -0.587785 -0.809017 0.000000
vn 0.000000 -1.000000 0.000000
vn 0.000000 -1.000000 0.000000
vn 0.000000 -1.000000 0.000000
vn 0.000000 -1.000000 0.000000
vn 0.587785 -0.809017 0.000000
vn 0.587785 -0.809017 0.000000
vn 0.587785 -0.809017 0.000000
vn 0.587785 -0.809017 0.000000
vn 0.951057 -0.309017 0.000000
vn 0.951056 -0.309017 0.000000
vn 0.951057 -0.309017 0.000000
vn 0.951056 -0.309017 0.000000
vn 0.951057 0.309017 0.000000
vn 0.951057 0.309017 0.000000
vn 0.951057 0.309017 0.000000
vn 0.951057 0.309017 0.000000
vn 0.000000 0.000000 -1.000000
vn 0.000000 0.000000 -1.000000
vn 0.000000 0.000000 -1.000000
vn 0.000000 0.000000 -1.000000
vn 0.000000 0.000000 -1.000000
vn 0.000000 0.000000 -1.000000
vn 0.000000 0.000000 -1.000000
vn 0.000000 0.000000 -1.000000
vn 0.000000 0.000000 -1.000000
vn 0.000000 0.000000 -1.000000
vn 0.000000 0.000000 -1.000000
vn 0.000000 0.000000 1.000000
vn 0.000000 0.000000 1.000000
vn 0.000000 0.000000 1.000000
vn 0.000000 0.000000 1.000000
vn -0.707107 0.707107 0.000000
vn -0.707107 0.707107 0.000000
vn -0.707107 0.707107 0.000000
vn -0.707107 0.707107 0.000000
vn 0.707107 -0.707107 0.000000
vn 0.707107 -0.707107 0.000000
vn 0.707107 -0.707107 0.000000
vn 0.707107 -0.707107 0.000000
vn 0.707107 0.707107 0.000000
vn 0.707107 0.707107 0.000000
vn 0.707107 0.707107 0.000000
vn 0.707107 0.707107 0.000000
vn -0.707107 -0.707107 0.000000
vn -0.707107 -0.707107 0.000000
vn -0.707107 -0.707107 0.000000
vn -0.707107 -0.707107 0.000000
vn -0.515072 0.515072 -0.685129
vn -0.515072 0.515072 -0.685129
vn -0.515072 0.515072 -0.685129
vn -0.515072 0.515072 -0.685129
vn 0.515072 0.515072 -0.685129
vn 0.515072 0.515072 -0.685129
vn 0.515072 0.515072 -0.685129
vn 0.515072 0.515072 -0.685129
vn 0.515072 -0.515072 0.685129
vn 0.515072 -0.515072 0.685129
vn 0.515072 -0.515072 0.685129
vn 0.515072 -0.515072 0.685129
vn -0.515072 -0.515072 0.685129
vn -0.515072 -0.515072 0.685129
vn -0.515072 -0.515072 0.685129
vn -0.515072 -0.515072 0.685129
vn -0.627526 0.627526 0.460894
vn -0.639806 0.617737 0.457219
vn -0.758307 0.505562 0.411556
vn -0.804334 0.450623 0.387281
vn 0.627526 0.627525 0.460894
vn 0.758307 0.505562 0.411556
vn 0.639806 0.617737 0.457219
vn 0.804334 0.450623 0.387281
vn 0.550513 -0.550513 -0.627591
vn 0.665912 -0.443423 -0.599947
vn 0.560942 -0.541897 -0.625853
vn 0.707980 -0.396641 -0.584329
vn -0.550513 -0.550513 -0.627591
vn -0.560942 -0.541897 -0.625853
vn -0.665912 -0.443423 -0.599947
vn -0.707980 -0.396641 -0.584329
vn 0.585160 -0.094398 -0.805405
vn 0.585160 -0.094398 -0.805404
vn 0.585161 -0.094398 -0.805404
vn 0.585161 -0.094398 -0.805404
vn 0.000000 -0.094398 -0.995535
vn 0.000000 -0.094398 -0.995535
vn 0.000000 -0.094398 -0.995535
vn 0.000000 -0.094398 -0.995535
vn -0.585162 -0.094398 -0.805404
vn -0.585161 -0.094398 -0.805404
vn -0.585161 -0.094398 -0.805404
vn -0.585160 -0.094398 -0.805405
vn -0.946810 -0.094398 -0.307637
vn -0.946810 -0.094398 -0.307637
vn -0.946810 -0.094398 -0.307637
vn -0.946810 -0.094398 -0.307637
vn -0.946809 -0.094398 0.307638
vn -0.946810 -0.094398 0.307638
vn -0.946810 -0.094398 0.307637
vn -0.946810 -0.094398 0.307637
vn -0.585161 -0.094398 0.805404
vn -0.585161 -0.094398 0.805404
vn -0.585161 -0.094398 0.805404
vn -0.585161 -0.094398 0.805404
vn 0.000000 -0.094398 0.995535
vn 0.000000 -0.094398 0.995535
vn 0.000000 -0.094398 0.995535
vn 0.000000 -0.094398 0.995535
vn 0.585162 -0.094398 0.805404
vn 0.585162 -0.094398 0.805404
vn 0.585161 -0.094398 0.805404
vn 0.585161 -0.094398 0.805404
vn 0.946810 -0.094398 0.307637
vn 0.946810 -0.094398 0.307637
vn 0.946810 -0.094398 0.307637
vn 0.946810 -0.094398 0.307637
vn 0.946810 -0.094398 -0.307637
vn 0.946810 -0.094398 -0.307637
vn 0.946810 -0.094398 -0.307637
vn 0.946810 -0.094398 -0.307637
vn 0.000000 1.000000 0.000000
vn 0.000000 1.000000 -0.000000
vn 0.000000 1.000000 -0.000000
vn 0.000000 1.000000 0.000000
vn 0.000000 1.000000 0.000000
vn 0.000000 1.000000 0.000000
vn 0.000000 1.000000 0.000000
vn 0.000000 1.000000 0.000000
vn 0.000000 1.000000 0.000001
vn 0.000000 1.000000 -0.000000
vn 0.000000 1.000000 -0.000001
vn 0.382683 0.000000 -0.923880
vn 0.382683 0.000000 -0.923880
vn 0.382683 0.000000 -0.923880
vn 0.382683 0.000000 -0.923880
vn -0.382683 0.000000 -0.923880
vn -0.382683 0.000000 -0.923880
vn -0.382683 0.000000 -0.923880
vn -0.382683 0.000000 -0.923880
vn -0.923880 0.000000 -0.382683
vn -0.923880 0.000000 -0.382683
vn -0.923880 0.000000 -0.382683
vn -0.923880 0.000000 -0.382683
vn -0.923880 0.000000 0.382684
vn -0.923880 0.000000 0.382683
vn -0.923880 0.000000 0.382683
vn -0.923880 0.000000 0.382683
vn -0.382683 0.000000 0.923880
vn -0.382683 0.000000 0.923880
vn -0.382683 0.000000 0.923880
vn -0.382683 0.000000 0.923880
vn 0.382683 0.000000 0.923880
vn 0.382683 0.000000 0.923880
vn 0.382683 0.000000 0.923880
vn 0.382683 0.000000 0.923880
vn 0.923880 0.000000 0.382684
vn 0.923880 0.000000 0.382683
vn 0.923880 0.000000 0.382683
vn 0.923880 0.000000 0.382683
vn 0.923880 0.000000 -0.382684
vn 0.923880 0.000000 -0.382683
vn 0.923880 0.000000 -0.382683
vn 0.923880 0.000000 -0.382683
vn 0.000000 1.000000 0.000000
vn 0.000000 1.000000 0.000000
vn 0.000000 1.000000 0.000000
vn 0.000000 1.000000 0.000000
vn 0.000000 1.000000 0.000000
vn 0.000000 1.000000 0.000000
vn 0.000000 1.000000 0.000000
vn 0.000000 1.000000 0.000001
vn 0.000000 1.000000 0.000001
s 1
f 1/12/1 2/31/2 11/14/3
f 11/14/3 2/31/2 12/13/4
s 2
f 2/31/5 3/32/6 12/13/7
f 12/13/7 3/32/6 13/33/8
s 3
f 3/15/9 4/17/10 13/16/11
f 13/16/11 4/17/10 14/18/12
s 4
f 4/17/13 5/19/14 14/18/15
f 14/18/15 5/19/14 15/20/16
s 5
f 5/19/17 6/21/18 15/20/19
f 15/20/19 6/21/18 16/22/20
s 6
f 6/21/21 7/23/22 16/22/23
f 16/22/23 7/23/22 17/24/24
s 7
f 7/23/25 8/25/26 17/24/27
f 17/24/27 8/25/26 18/26/28
s 8
f 8/25/29 9/27/30 18/26/31
f 18/26/31 9/27/30 19/28/32
s 9
f 9/27/33 10/29/34 19/28/35
f 19/28/35 10/29/34 20/30/36
s 10
f 10/29/37 1/12/38 20/30/39
f 20/30/39 1/12/38 11/14/40
s 11
f 2/1/41 1/2/42 21/3/43
f 3/4/44 2/1/41 21/3/43
f 4/5/45 3/4/44 21/3/43
f 5/6/46 4/5/45 21/3/43
f 6/7/47 5/6/46 21/3/43
f 7/8/48 6/7/47 21/3/43
f 8/9/49 7/8/48 21/3/43
f 9/10/50 8/9/49 21/3/43
f 10/11/51 9/10/50 21/3/43
f 1/2/42 10/11/51 21/3/43
s 12
f 22//52 23//53 24//54
f 24//54 23//53 25//55
s 13
f 24/38/56 25/39/57 26/41/58
f 26/41/58 25/39/57 27/40/59
s 14
f 28/36/60 29/42/61 22/37/62
f 22/37/62 29/42/61 23/43/63
s 15
f 23/43/64 29/42/65 25/39/66
f 25/39/66 29/42/65 27/40/67
s 16
f 28/36/68 22/37/69 26/35/70
f 26/35/70 22/37/69 24/34/71
s 17
f 27/49/72 31/50/73 26/48/74
f 26/48/74 31/50/73 30/51/75
s 18
f 27/49/76 29/53/77 31/50/78
f 31/50/78 29/53/77 32/52/79
s 19
f 29/53/80 28/46/81 32/52/82
f 32/52/82 28/46/81 33/47/83
s 20
f 26/44/84 30/45/85 28/46/86
f 28/46/86 30/45/85 33/47/87
s 21
f 30/58/88 31/59/89 34/61/90
f 34/61/90 31/59/89 35/60/91
s 22
f 32/63/92 36/62/93 31/59/94
f 31/59/94 36/62/93 35/60/95
s 23
f 33/56/96 37/57/97 32/63/98
f 32/63/98 37/57/97 36/62/99
s 24
f 33/56/100 30/54/101 37/57/102
f 37/57/102 30/54/101 34/55/103
s 25
f 38/102/104 39/121/105 48/104/106
f 48/104/106 39/121/105 49/103/107
s 26
f 39/121/108 40/122/109 49/103/110
f 49/103/110 40/122/109 50/123/111
s 27
f 40/105/112 41/107/113 50/106/114
f 50/106/114 41/107/113 51/108/115
s 28
f 41/107/116 42/109/117 51/108/118
f 51/108/118 42/109/117 52/110/119
s 29
f 42/109/120 43/111/121 52/110/122
f 52/110/122 43/111/121 53/112/123
s 30
f 43/111/124 44/113/125 53/112/126
f 53/112/126 44/113/125 54/114/127
s 31
f 44/113/128 45/115/129 54/114/130
f 54/114/130 45/115/129 55/116/131
s 32
f 45/115/132 46/117/133 55/116/134
f 55/116/134 46/117/133 56/118/135
s 33
f 46/117/136 47/119/137 56/118/138
f 56/118/138 47/119/137 57/120/139
s 34
f 47/119/140 38/102/141 57/120/142
f 57/120/142 38/102/141 48/104/143
s 35
f 48/64/144 49/65/145 58/66/146
f 49/65/145 50/67/147 58/66/146
f 50/67/147 51/68/148 58/66/146
f 51/68/148 52/69/149 58/66/146
f 52/69/149 53/70/150 58/66/146
f 53/70/150 54/71/151 58/66/146
f 54/71/151 55/72/152 58/66/146
f 55/72/152 56/73/153 58/66/146
f 56/73/153 57/74/154 58/66/146
f 57/74/154 48/64/144 58/66/146
s 36
f 59/99/155 60/100/156 67/86/157
f 67/86/157 60/100/156 68/101/158
s 37
f 60/84/159 61/87/160 68/85/161
f 68/85/161 61/87/160 69/88/162
s 38
f 61/87/163 62/89/164 69/88/165
f 69/88/165 62/89/164 70/90/166
s 39
f 62/89/167 63/91/168 70/90/169
f 70/90/169 63/91/168 71/92/170
s 40
f 63/91/171 64/93/172 71/92/173
f 71/92/173 64/93/172 72/94/174
s 41
f 64/93/175 65/95/176 72/94/177
f 72/94/177 65/95/176 73/96/178
s 42
f 65/95/179 66/97/180 73/96/181
f 73/96/181 66/97/180 74/98/182
s 43
f 66/97/183 59/99/184 74/98/185
f 74/98/185 59/99/184 67/86/186
s 44
f 67/75/187 68/76/188 75/77/189
f 68/76/188 69/78/190 75/77/189
f 69/78/190 70/79/191 75/77/189
f 70/79/191 71/80/192 75/77/189
f 71/80/192 72/81/193 75/77/189
f 72/81/193 73/82/194 75/77/189
f 73/82/194 74/83/195 75/77/189
f 74/83/195 67/75/187 75/77/189
