# This file uses centimeters as units for non-parametric coordinates.

v -35.000000 0.000000 35.000000
v 35.000000 0.000000 35.000000
v -35.000000 70.000000 35.000000
v 35.000000 70.000000 35.000000
v -35.000000 70.000000 -35.000000
v 35.000000 70.000000 -35.000000
v -35.000000 0.000000 -35.000000
v 35.000000 0.000000 -35.000000
vt 0.350513 0.637716
vt 0.345298 0.356493
vt 0.656900 0.636836
vt 0.658961 0.356344
vt 0.059466 0.634891
vt 0.059383 0.362944
vt 0.349817 0.974709
vt 0.659012 0.974709
vt 0.945438 0.358221
vt 0.945438 0.642670
vt 0.344817 0.034540
vt 0.661414 0.034540
vn 0.000000 0.000000 -1.000000
vn 0.000000 0.000000 -1.000000
vn 0.000000 0.000000 -1.000000
vn 0.000000 0.000000 -1.000000
vn 0.000000 0.000000 -1.000000
vn 0.000000 0.000000 -1.000000
vn 0.000000 0.000000 1.000000
vn 0.000000 0.000000 1.000000
vn 0.000000 0.000000 1.000000
vn 0.000000 0.000000 1.000000
vn 0.000000 0.000000 1.000000
vn 0.000000 0.000000 1.000000
vn 0.000000 1.000000 0.000000
vn 0.000000 1.000000 0.000000
vn 0.000000 1.000000 0.000000
vn 0.000000 1.000000 0.000000
vn 0.000000 1.000000 0.000000
vn 0.000000 1.000000 0.000000
vn -1.000000 0.000000 0.000000
vn -1.000000 0.000000 0.000000
vn -1.000000 0.000000 0.000000
vn -1.000000 0.000000 0.000000
vn -1.000000 0.000000 0.000000
vn -1.000000 0.000000 0.000000
vn 1.000000 0.000000 0.000000
vn 1.000000 0.000000 0.000000
vn 1.000000 0.000000 0.000000
vn 1.000000 0.000000 0.000000
vn 1.000000 0.000000 0.000000
vn 1.000000 0.000000 0.000000
s off
f 1/2/1 3/11/2 2/4/3
f 2/4/4 3/11/5 4/12/6
f 5/7/7 7/1/8 6/8/9
f 6/8/10 7/1/11 8/3/12
f 7/1/13 1/2/14 8/3/15
f 8/3/16 1/2/17 2/4/18
f 2/4/19 4/9/20 8/3/21
f 8/3/22 4/9/23 6/10/24
f 7/1/25 5/5/26 1/2/27
f 1/2/28 5/5/29 3/6/30
