# This file uses centimeters as units for non-parametric coordinates.

v 17.500000 0.000000 17.500000
v 17.500000 0.000000 -17.500000
v -17.500000 0.000000 17.500000
v -17.500000 0.000000 -17.500000
vt 0.200932 0.797792
vt 0.200932 0.950098
vt 0.048626 0.797792
vt 0.048626 0.950098
vn 0.000000 1.000000 0.000000
vn 0.000000 1.000000 0.000000
vn 0.000000 1.000000 0.000000
vn 0.000000 1.000000 0.000000
vn 0.000000 1.000000 0.000000
vn 0.000000 1.000000 0.000000
g Mesh
f 1/1/1 2/2/2 3/3/3
f 3/3/4 2/2/5 4/4/6
