# This file uses centimeters as units for non-parametric coordinates.

mtllib TimerQuad.mtl
g default
v -0.394444 0.000000 0.500000
v 0.394444 0.000000 0.500000
v -0.394444 0.000000 -0.500000
v 0.394444 0.000000 -0.500000
vt 0.000455 0.900032
vt 0.099843 0.900032
vt 0.000455 0.998000
vt 0.099843 0.998000
vn 0.000000 1.000000 0.000000
vn 0.000000 1.000000 0.000000
vn 0.000000 1.000000 0.000000
vn 0.000000 1.000000 0.000000
vn 0.000000 1.000000 0.000000
vn 0.000000 1.000000 0.000000
s off
g TimerQuad:Mesh
usemtl phong1SG
f 1/1/1 2/2/2 3/3/3
f 3/3/4 2/2/5 4/4/6
