# This file uses centimeters as units for non-parametric coordinates.

v -11.666500 0.000000 11.666500
v 11.666500 0.000000 11.666500
v -11.666500 0.000000 -11.666500
v 11.666500 0.000000 -11.666500
vt -0.002636 0.749454
vt 0.251282 0.749454
vt -0.002636 1.003371
vt 0.251282 1.003371
vn 0.000000 1.000000 0.000000
vn 0.000000 1.000000 0.000000
vn 0.000000 1.000000 0.000000
vn 0.000000 1.000000 0.000000
vn 0.000000 1.000000 0.000000
vn 0.000000 1.000000 0.000000
g pPlane1
f 1/1/1 2/2/2 3/3/3
f 3/3/4 2/2/5 4/4/6
